<svg xmlns="http://www.w3.org/2000/svg" xmlns:xlink="http://www.w3.org/1999/xlink" width="594" height="362"><style><![CDATA[.B{fill:#000}.C{fill:#fff}.D{mask:url(#AI)}.E{fill:#eef5ff}.F{fill-opacity:0}]]></style><defs><linearGradient x1="50%" y1="68.6892245%" x2="75.7034673%" y2="28.1591131%" id="A"><stop stop-color="#ecf2fc" offset="0%"/><stop stop-color="#b9cff7" offset="100%"/></linearGradient><linearGradient x1="30.286812%" y1="0.890985835%" x2="85.0355696%" y2="89.0021255%" id="B"><stop stop-color="#acd6ff" stop-opacity=".152" offset="0%"/><stop stop-color="#96accb" stop-opacity=".457" offset="100%"/></linearGradient><linearGradient x1="30.286812%" y1="2.81373604%" x2="85.0355696%" y2="87.4750872%" id="C"><stop stop-color="#acd6ff" stop-opacity=".152" offset="0%"/><stop stop-color="#96accb" stop-opacity=".457" offset="100%"/></linearGradient><linearGradient x1="30.286812%" y1="2.10150061%" x2="85.0355696%" y2="88.0407409%" id="D"><stop stop-color="#acd6ff" stop-opacity=".152" offset="0%"/><stop stop-color="#96accb" stop-opacity=".457" offset="100%"/></linearGradient><linearGradient x1="93.3958167%" y1="77.2410124%" x2="36.8840443%" y2="40.0529347%" id="E"><stop stop-color="#367ed7" offset="0%"/><stop stop-color="#153d8e" offset="100%"/></linearGradient><linearGradient x1="0%" y1="67.1789461%" x2="106.166257%" y2="55.4632468%" id="F"><stop stop-color="#fdae6b" offset="0%"/><stop stop-color="#fae539" offset="100%"/></linearGradient><linearGradient x1="72.3455552%" y1="42.6297772%" x2="42.9088461%" y2="99.2879719%" id="G"><stop stop-color="#cbdaf1" offset="0%"/><stop stop-color="#9cb3df" offset="100%"/></linearGradient><radialGradient cx="42.0546178%" cy="45.5410746%" fx="42.0546178%" fy="45.5410746%" r="42.251375%" gradientTransform="translate(0.420546,0.455411),scale(0.843139,1.000000),rotate(-67.837877),scale(1.000000,1.538504),translate(-0.420546,-0.455411)" id="H"><stop stop-color="#62abfb" offset="0%"/><stop stop-color="#1440c0" offset="100%"/></radialGradient><radialGradient cx="52.9469765%" cy="28.6240847%" fx="52.9469765%" fy="28.6240847%" r="54.1927866%" gradientTransform="translate(0.529470,0.286241),scale(0.830336,1.000000),rotate(108.405639),scale(1.000000,3.925275),translate(-0.529470,-0.286241)" id="I"><stop stop-color="#f4f8ff" offset="0%"/><stop stop-color="#89b1e9" offset="100%"/></radialGradient><filter x="-115.9%" y="-137.8%" width="331.8%" height="375.7%" id="J"><feGaussianBlur stdDeviation="36.781" in="SourceGraphic"/></filter><linearGradient x1="78.2262224%" y1="44.5414506%" x2="50%" y2="65.9497446%" id="K"><stop stop-color="#9abfff" offset="0%"/><stop stop-color="#5b87d2" offset="100%"/></linearGradient><path d="M3.313 20.517c-.807-3.69-2.02-6.436-.807-11.418s15.176-7.806 16.938-6.2 1.475 2.45 8.454 6.17S54.88 17.104 59.16 21.93s5.08 8.015-3.82 8.015H27.816c-4.94-1.797-6.602-2.765-9.37-4.428-.565 2.084 0 3.86 0 3.86H6.59s-2.472-5.167-3.278-8.858z" id="L"/><linearGradient x1="50%" y1="30.0690444%" x2="33.4022007%" y2="69.9309556%" id="M"><stop stop-color="#91baff" offset="0%"/><stop stop-color="#123a8e" offset="100%"/></linearGradient><path d="M9.414 33.598C6.788 31.11 4.347 29.6 2.63 24.986S10.48 10.6 12.736 10.902s2.49 1.144 10.032.316 21.034-10.033 27.03-8.526 11.38 1.538 4.313 6.352c-3.32 2.262-16.178 16.05-20.168 18.77-4.89 1.248-6.73 1.38-9.823 1.56.673 1.957 2.077 3.058 2.077 3.058l-9.412 6.412s-4.743-2.758-7.37-5.246z" id="N"/><linearGradient x1="57.85511%" y1="15.6576481%" x2="50%" y2="94.3733967%" id="O"><stop stop-color="#ffe579" offset="0%"/><stop stop-color="#feb755" offset="100%"/></linearGradient><linearGradient x1="9.10523164%" y1="71.3319682%" x2="87.6008642%" y2="40.8266209%" id="P"><stop stop-color="#ff9292" offset="0%"/><stop stop-color="#ffb59d" offset="100%"/></linearGradient><linearGradient x1="50%" y1="53.8322575%" x2="86.1217409%" y2="39.0097369%" id="Q"><stop stop-color="#002383" offset="0%"/><stop stop-color="#316eea" offset="100%"/></linearGradient><path d="M5.835 39.633c5.34-7.228 18.4-22.306 46.548-27.798s53.98-10.62 101.415 3.54c3.905 45.96 8.356 92.236 12.847 101.607-3.426 4.183-15.8 7.38-23.06 7.38-2.634-10.348-10.887-35.277-15.08-47.608s-5.68-27.638-4.87-33.035C109.34 47.793 80.057 60.18 69.79 63.85s-45.5 15.304-57.15 5.937S.496 46.86 5.835 39.633z" id="R"/><filter x="-11.6%" y="-13.3%" width="124.4%" height="130.7%" id="S"><feGaussianBlur stdDeviation="14" in="SourceAlpha"/><feOffset dx="16" dy="4"/><feComposite in2="SourceAlpha" operator="arithmetic" k2="-1" k3="1"/><feColorMatrix values="0 0 0 0 0.103708091 0 0 0 0 0.317384548 0 0 0 0 0.809603529 0 0 0 1 0"/></filter><linearGradient x1="50%" y1="100%" x2="79.7769466%" y2="39.0738882%" id="T"><stop stop-color="#002343" offset="0%"/><stop stop-color="#1a72ff" stop-opacity=".437" offset="100%"/></linearGradient><linearGradient x1="35.0312777%" y1="110.865056%" x2="63.7630537%" y2="23.8262208%" id="U"><stop stop-color="#ff9292" offset="0%"/><stop stop-color="#ffb59d" offset="100%"/></linearGradient><path d="M6.247 25.516L1.556 3.24C1.01.572 27.416 9.787 27.416 9.787l3.32 17.465 3.8 29.537S7.662 32.64 6.247 25.516z" id="V"/><linearGradient x1="50%" y1="26.1418758%" x2="50%" y2="100%" id="W"><stop stop-color="#ffe579" offset="0%"/><stop stop-color="#feba57" offset="83.8331261%"/><stop stop-color="#feb755" offset="100%"/></linearGradient><path d="M50.947.702S60.973 2.34 61.663 3.598c6.52 4.752 12.792 18.895 15.47 26.222s7.814 14.894 12.444 20.777 6.85 7.097 12.917 11.45 8.295 7.806 4.86 11.05-23.202 1.985-37.276 19.63c-12.294 5.058-12.28 6.908-15.932-4.02S20.46 50.453 15.59 46.6s-3-7.553-4.218-19.35S1.286 5.888 8.736 5.888c5.87 2.193 11.59-2.3 14.172-2.3 9.405 2.35 11.547 11.64 15.45 9.69s6.404-1.948 6.404-1.948c.91 1.855 1.204 5.032 2.115 6.886s4.723 5.575 6.417 9.023L50.3 17.216l.835-6-.19-10.514z" id="X"/><linearGradient x1="43.7493467%" y1="34.8553261%" x2="60.8216517%" y2="47.940068%" id="Y"><stop stop-color="#3d9bf8" offset="0%"/><stop stop-color="#3b80f0" offset="100%"/></linearGradient><linearGradient x1="9.39280869%" y1="110.865056%" x2="87.3364503%" y2="23.8262208%" id="Z"><stop stop-color="#ff9292" offset="0%"/><stop stop-color="#ffb59d" offset="100%"/></linearGradient><linearGradient x1="9.10523164%" y1="57.5334515%" x2="87.6008642%" y2="46.7603924%" id="a"><stop stop-color="#ff9292" offset="0%"/><stop stop-color="#ffb59d" offset="100%"/></linearGradient><path d="M26.497 21.626c7.142 2.902 30.27-8.65 37.61-7.623 6.747.943-1.814-9.645-4.348-11.52S6.566 1.46 3.907 5.37s16.667 13.85 22.6 16.256z" id="b"/><linearGradient x1="85.0399557%" y1="19.1840632%" x2="28.920747%" y2="50%" id="c"><stop stop-color="#2669e1" offset="0%"/><stop stop-color="#143b8c" offset="100%"/></linearGradient><path d="M127.556 52.724s-3.447-5.256-.782-10.47 16.732 1.74 28.125-11.113 1.27-30.197-10.443-26.815-8.84 9.442-6.717 13.962-8.8 6.218-16.614 9.4-14.19 11.743-12.812 25.035S121.977 76.9 125.888 78.9c-1.137-7.855-1.188-11.464-1.188-13.65-4.486 2.08-9.71-8.235-6.67-10.95 5.81-5.184 8.742 6.623 8.742 6.623s.782-1.68 2.164-3.275c-.526-2.844-1.38-4.926-1.38-4.926z" id="d"/><filter x="-22.8%" y="-15.1%" width="137.1%" height="134.2%" id="e"><feGaussianBlur stdDeviation="9" in="SourceAlpha"/><feOffset dx="13" dy="12"/><feComposite in2="SourceAlpha" operator="arithmetic" k2="-1" k3="1"/><feColorMatrix values="0 0 0 0 0 0 0 0 0 0 0 0 0 0 0 0 0 0 0.13988904 0"/></filter><linearGradient x1="50%" y1="-10.8772052%" x2="50%" y2="100%" id="f"><stop stop-color="#ffe579" offset="0%"/><stop stop-color="#feb755" offset="100%"/></linearGradient><path d="M91.262 130.723c55.198 34.75 112.205 38.55 131.374 7.643 23.02-45.054-55.914-25.56-111.112-60.31S57.7 14.297 19.615.483C.447 31.39 36.063 95.972 91.262 130.723z" id="g"/><path d="M-7.476 86.854c28.81 18.85 61.814 19.165 73.714.7S64.43 38.843 35.62 19.992-26.194.827-38.095 19.29s1.808 48.712 30.618 67.563z" id="h"/><filter x="-17.0%" y="-23.5%" width="134.0%" height="147.0%" id="i"><feGaussianBlur stdDeviation="10.5" in="SourceAlpha"/><feOffset dx="-27.5" dy="-39.3"/><feComposite in2="SourceAlpha" operator="arithmetic" k2="-1" k3="1"/><feColorMatrix values="0 0 0 0 0.5803922 0 0 0 0 0.6745098 0 0 0 0 0.85490197 0 0 0 0.43 0"/></filter><path d="M93.598 161.99c21.232-9.975 27.833-41 14.743-69.273s-40.914-43.124-62.147-33.15-27.833 41-14.743 69.273 40.914 43.124 62.147 33.15z" id="j"/><filter x="-15.5%" y="-12.4%" width="131.0%" height="124.9%" id="k"><feGaussianBlur stdDeviation="10.5" in="SourceAlpha"/><feOffset dx="-14.9" dy="-24.9"/><feComposite in2="SourceAlpha" operator="arithmetic" k2="-1" k3="1"/><feColorMatrix values="0 0 0 0 0.5803922 0 0 0 0 0.6745098 0 0 0 0 0.85490197 0 0 0 0.43 0"/></filter><path d="M148.66 209.66c21.232-9.975 27.833-41 14.743-69.273s-40.914-43.124-62.147-33.15-27.833 41-14.743 69.273 40.914 43.124 62.147 33.15z" id="l"/><filter x="-15.5%" y="-12.4%" width="131.0%" height="124.9%" id="m"><feGaussianBlur stdDeviation="10.5" in="SourceAlpha"/><feOffset dx="-24.9" dy="-12.7"/><feComposite in2="SourceAlpha" operator="arithmetic" k2="-1" k3="1"/><feColorMatrix values="0 0 0 0 0.5803922 0 0 0 0 0.6745098 0 0 0 0 0.85490197 0 0 0 0.43 0"/></filter><path d="M251.446 225.685c21.233-9.975 27.833-41 14.743-69.273s-40.914-43.124-62.147-33.15-27.833 41-14.743 69.273 40.914 43.124 62.146 33.15z" id="n"/><filter x="-9.6%" y="-7.5%" width="119.2%" height="115.0%" id="o"><feGaussianBlur stdDeviation="10.5" in="SourceAlpha"/><feOffset dx="-9.9" dy="12.6"/><feComposite in2="SourceAlpha" operator="arithmetic" k2="-1" k3="1"/><feColorMatrix values="0 0 0 0 0.5803922 0 0 0 0 0.6745098 0 0 0 0 0.85490197 0 0 0 0.43 0"/></filter><path d="M178.718 194.342c23.253 2.877 43.872-9.3 46.055-27.22s-14.898-34.76-38.15-37.636-43.872 9.3-46.055 27.22 14.898 34.76 38.15 37.636z" id="p"/><filter x="-19.4%" y="-23.8%" width="138.6%" height="147.5%" id="q"><feGaussianBlur stdDeviation="10.5" in="SourceAlpha"/><feOffset dx="-18.8" dy="2.6"/><feComposite in2="SourceAlpha" operator="arithmetic" k2="-1" k3="1"/><feColorMatrix values="0 0 0 0 0.5803922 0 0 0 0 0.6745098 0 0 0 0 0.85490197 0 0 0 0.43 0"/></filter><linearGradient x1="100%" y1="69.4504887%" x2="27.9339743%" y2="50%" id="r"><stop stop-color="#cee0fb" offset="0%"/><stop stop-color="#e4edfb" offset="100%"/></linearGradient><linearGradient x1="50%" y1="0%" x2="50%" y2="100%" id="s"><stop stop-color="#99bae9" offset="0%"/><stop stop-color="#bcd0f2" offset="100%"/></linearGradient><linearGradient x1="46.231024%" y1="5.04199562%" x2="56.837042%" y2="100%" id="t"><stop stop-color="#b1ffbe" offset="0%"/><stop stop-color="#5cdb8e" offset="44.420721%"/><stop stop-color="#149654" offset="100%"/></linearGradient><path d="M68.984 320.17c-1.434-9.93-5.38-24.27-17.24-39.717-6.986-9.1-7.01-31.256-8.018-33.7 5.482 1.886 15.33 6.75 25.258 20.46 10.407 14.373 3.805 43.686 0 52.956z" id="u"/><filter x="-11.2%" y="-5.5%" width="109.2%" height="110.4%" id="v"><feGaussianBlur stdDeviation="2.5" in="SourceAlpha"/><feOffset dy="-4"/><feComposite in2="SourceAlpha" operator="arithmetic" k2="-1" k3="1"/><feColorMatrix values="0 0 0 0 0.221483195 0 0 0 0 0.778539541 0 0 0 0 0.473229813 0 0 0 1 0"/></filter><linearGradient x1="74.5038344%" y1="-9.30161748%" x2="84.5791329%" y2="88.8160124%" id="w"><stop stop-color="#b1ffbe" offset="0%"/><stop stop-color="#5cdb8e" offset="44.420721%"/><stop stop-color="#149654" offset="100%"/></linearGradient><path d="M69.028 330.363c-4.43-7.09-12.258-16.7-26.498-24.493-8.388-4.6-15.85-21.48-17.44-23.004 4.817-.404 13.965-.007 26.147 7.112 12.77 7.462 17.58 32.036 17.8 40.385z" id="x"/><filter x="-8.6%" y="-7.8%" width="116.8%" height="115.7%" id="y"><feGaussianBlur stdDeviation="2.5" in="SourceAlpha"/><feOffset dy="-4"/><feComposite in2="SourceAlpha" operator="arithmetic" k2="-1" k3="1"/><feColorMatrix values="0 0 0 0 0.221483195 0 0 0 0 0.778539541 0 0 0 0 0.473229813 0 0 0 1 0"/></filter><linearGradient x1="41.5322247%" y1="5.04199562%" x2="65.3608132%" y2="100%" id="z"><stop stop-color="#b1ffbe" offset="0%"/><stop stop-color="#5cdb8e" offset="44.420721%"/><stop stop-color="#149654" offset="100%"/></linearGradient><path d="M72.2 331.335c3.493-7.633 10.044-18.212 23.217-27.808 7.76-5.653 13-23.433 14.388-25.156-4.85.22-13.91 1.795-25.122 10.456-11.75 9.08-13.355 34.168-12.483 42.508z" id="AA"/><filter x="-7.8%" y="-7.0%" width="117.9%" height="114.4%" id="AB"><feGaussianBlur stdDeviation="2.5" in="SourceAlpha"/><feOffset dy="-4"/><feComposite in2="SourceAlpha" operator="arithmetic" k2="-1" k3="1"/><feColorMatrix values="0 0 0 0 0.221483195 0 0 0 0 0.778539541 0 0 0 0 0.473229813 0 0 0 1 0"/></filter></defs><g transform="translate(-.119 -.425)" fill="none" fill-rule="evenodd"><path d="M434.024 53.255c76.29.288 139.667 34.52 155.903 91.023 21.58 75.095-48.285 161.092-156.045 192.08-77.8 22.372-154.082 9.954-198.606-26.94-98.858 12.513-185.706-24.013-205.198-91.85C7.377 138.57 84.62 47.025 202.604 13.098c94.792-27.258 187.043-9.03 231.42 40.157z" fill="url(#A)" opacity=".118"/><path d="M500.95 97.512h25.635c1.685 0 3.052 1.368 3.052 3.055l-9.155 33.607c0 1.687-1.366 3.055-3.052 3.055h-25.635c-1.685 0-3.052-1.368-3.052-3.055l9.155-33.607c0-1.687 1.366-3.055 3.052-3.055z" fill="url(#B)"/><path d="M539.66 111.955h33.677a4.01 4.01 0 0 1 4.009 4.012l-12.028 44.13a4.01 4.01 0 0 1-4.009 4.012h-33.677a4.01 4.01 0 0 1-4.009-4.012l12.028-44.13a4.01 4.01 0 0 1 4.009-4.012z" fill="url(#C)"/><path d="M507.186 146.858h33.677a4.01 4.01 0 0 1 4.009 4.012L532.844 195a4.01 4.01 0 0 1-4.009 4.012h-33.677a4.01 4.01 0 0 1-4.009-4.012l12.028-44.13a4.01 4.01 0 0 1 4.009-4.012z" fill="url(#D)"/><g fill="#8ca4d4"><path d="M525.628 241.102h8.42v109.192h-8.42z"/><path d="M497.564 350.26h64.548v8.425h-64.548zM473.9 232.7h112.257v8.425H473.9z"/></g><g fill="#123584"><path d="M507.186 232.71l11.782-58.172 68 1.204-11.627 56.968z"/><path d="M473.9 229.44h105.832v3.67H477.117z"/></g><path fill="url(#E)" d="M511.195 233.113l11.782-58.573 68 1.204-11.226 57.37z"/><path d="M34.906 73.842C-63.136 176.907 80.94 322.69 168.36 213.18c147.268-184.48 272.673-45.86 272.673-45.86" stroke="#8ca4d4" stroke-width="2.005" opacity=".5" stroke-linecap="round" stroke-dasharray="2.004581901489118,8.018327605956472" class="B F"/><path fill="url(#F)" d="M433.422 184.983l8.352-10.917 27.07 16.95-20.735-23.846 10.08-9.48 25.343 44.532z"/><path fill="#e1a846" d="M441.485 174.353l6.336-.862 22.175 18.387z"/><path fill="#e6b052" d="M447.533 173.49l.864-6.32 21.023 24.133z"/><path fill="url(#F)" transform="matrix(.788011 -.615661 .615661 .788011 -5.409324 219.028974)" d="M290.296 122.397l8.352-10.917 27.07 16.95-20.735-23.846 10.08-9.48 25.343 44.532z"/><path fill="#e1a846" d="M298.512 123.414l4.462-4.58 28.794.837z"/><path fill="#e6b052" d="M302.747 119.01l-3.21-5.513 31.424 6.074z"/><path d="M62.97 29.71c13.728 0 24.857 11.136 24.857 24.874S76.698 79.458 62.97 79.458 38.113 68.322 38.113 54.585 49.242 29.71 62.97 29.71z" fill="url(#G)"/><path d="M64.476 45.45v9.547l4.366 4.37-4.366-13.917z" stroke="#fff" stroke-width="2.405"/><g transform="translate(19.119 73.425)"><path d="M162.853 288.268c46.518 0 84.228-7.605 84.228-16.987s-37.7-16.987-84.228-16.987-84.228 7.605-84.228 16.987 37.7 16.987 84.228 16.987z" fill="#c5d9fa"/><path d="M103.902 259.4c51.617 24.85 127.403 21.566 161.398-45.867 22.46-43.39-25.46-95.344-78.095-131.47C139.964 49.64 97.946 42.287 73.29 60.54c-2.815 2.084-7.82 1.675-10.093 4.51-62.577 71.68-10.914 169.5 40.703 194.35z" fill="url(#H)"/><path d="M135.753 198.27c55.2 34.614 112.207 38.397 131.376 7.613 17.785-33.26-25.362-93.41-80.56-128.024S83.274 37.76 64.105 68.543s16.448 95.113 71.648 129.727z" fill="url(#I)"/><path d="M148.776 174.258c24.75 15.53 50.31 17.226 58.906 3.415 7.975-14.92-11.372-41.907-36.122-57.436s-46.314-17.99-54.91-4.18 7.375 42.67 32.125 58.2z" fill="#94b0d7" filter="url(#J)"/><g transform="translate(303.983 254.95)"><mask id="AC" class="C"><use xlink:href="#L"/></mask><use fill="url(#K)" xlink:href="#L"/><path d="M2.9 26.6C5.455 19.987 15.408 7.668 18.292 3.66 20.214.986 13.844 2.56-.818 8.384-.04 24.924 1.198 30.993 2.9 26.6z" fill="#3d82f0" style="mix-blend-mode:multiply" opacity=".2" mask="url(#AC)"/></g><g transform="translate(321.087 141.601)"><mask id="AD" class="C"><use xlink:href="#N"/></mask><use fill="url(#M)" xlink:href="#N"/><path d="M12.7 37.287c-3.952-8.216.118-26.75-1.684-28.393C9.825 7.8 6.286 12.222.4 22.16-2.385 24.94-1.537 28.412 2.954 32.57c6.736 6.24 13.708 12.93 9.756 4.715z" fill="#617fc8" style="mix-blend-mode:multiply" opacity=".2" mask="url(#AD)"/></g><path d="M160.083 84.058c18.33-9.795 28.777-38.4 36.348-46.43s10.914 7.343 9.663 11.87-10.48 34.97-29.74 59.552c0 16.06-18.64-12.107-16.272-24.993z" fill="url(#O)"/><path d="M151.605 51.476s43.45-17.244 49.324-16.104-11.682 21.234-15.274 22.856-8.474 5.577-13.876 5.718-17.82 2.825-17.82 2.825l-2.354-15.295z" fill="url(#P)"/><g transform="translate(156.683 141.219)"><mask id="AE" class="C"><use xlink:href="#R"/></mask><use fill="url(#Q)" xlink:href="#R"/><use filter="url(#S)" xlink:href="#R" class="B"/><path d="M102.487 50.897c0-6.405 16.16-40.21 20.49-43.823 2.885-2.41.044-3.435-8.524-3.076-19.52 20.33-30.56 35.963-33.123 46.9-3.845 16.404 21.158 6.405 21.158 0z" fill="url(#T)" style="mix-blend-mode:multiply" opacity=".3" mask="url(#AE)"/></g><g transform="translate(121.053 62.48)"><mask id="AF" class="C"><use xlink:href="#V"/></mask><use fill="url(#U)" xlink:href="#V"/><path d="M3.733 2.748c0 2.682 10.02 14.15 15.433 17.292 3.61 2.096 8.664 3.046 15.165 2.852L32.845 7.45 3.733.073c0-.005 0 .887 0 2.674z" fill="#fa6f6f" style="mix-blend-mode:multiply" opacity=".392" mask="url(#AF)"/></g><g transform="translate(99.377 81.211)"><mask id="AG" class="C"><use xlink:href="#X"/></mask><use xlink:href="#X" class="C"/><use fill="url(#W)" xlink:href="#X"/><path d="M51.8 26.872c.886 1.782 10.584 18.833 12.644 21.285s8.816 9.284 11.42 11.87 18.573 12.77 18.763 15.964" opacity=".6" mask="url(#AG)" class="B F"/><path d="M39.058 24.156c2.968-5.416 5.316-8.124 7.044-8.124s1.426-2.633-.908-7.9l-8.083 6.134 1.947 9.9z" fill="#ffba58" opacity=".3" mask="url(#AG)"/></g><path d="M206.287 148.542c14.776-13.61 57.07-39.953 81.187-43.976 13.817 2.306 49.773 41.415 49.773 41.415-1.62 1.714-5.895 16.916-12.644 21.694-17-14.16-34.722-20.774-39.48-28.096-5.936 3.627-21.195 14.217-29.972 29.776s-14.6 33.284-24.602 33.728-24.108 1.6-37.1-6.8c-7.546-4.873-29.272-15.734-18.717-22.85 6.05-4.078 25.364-19.186 31.558-24.892z" fill="url(#Y)"/><path d="M147.68 35.346c1 2.535 6.492 13.658 7.02 16.43s5.754 21.268 2.642 24.117-12.447 4.3-15.056 3.378-8.216-1.496-10.4-5.343c-1.68-2.957-7.012-9.82-8.41-9.427-.51 1.054-2.293 2.18-3.185 1.457-3.855-3.127-7.16-6.513-5.6-14.18s7.067-11.452 12.963-13.942 19.017-5.024 20.018-2.5z" fill="url(#Z)"/><g transform="translate(54.121 57.165)"><mask id="AH" class="C"><use xlink:href="#b"/></mask><use fill="url(#a)" xlink:href="#b"/><path d="M11.8 4.858c1.502.548 31.962 13.87 39.498 12.024 5.024-1.23-1.236 1.095-18.78 6.975C17.706 10.826 10.8 4.493 11.8 4.858z" fill="#fa6f6f" opacity=".5" mask="url(#AH)"/></g><use fill="url(#c)" xlink:href="#d"/><use filter="url(#e)" xlink:href="#d" class="B"/><path d="M151.244 91.203c3.567 1.272 4.25 7.883 4.862 9.747s-2.57-14.613-2.57-14.613c-1.12 1.55-3.516-8.973-3.065-7.43 1.21 4.15.196 8.85.774 12.296z" fill="url(#f)"/><path d="M139.553 107.907c0-5.856 2.32-13.536 5.184-16.275-4.154.257-16.373-7.07-17.677-11.153l-1.547-4.667S123 80.695 123 83.793c1.78 6.72 9.72 18.387 16.555 24.113z" fill="url(#f)"/><path d="M103.33 85.455C91.268 78.8 67.17 59.88 60.836 61.424s-4.7 4.413-4.7 10.993 33.102 28.8 38.2 39.795c2.182 4.707 7.77 16.333 17.777 14.438s6.97-11.872 4.814-19.92c-2.535-9.46-6.175-17.178-13.604-21.276z" fill="url(#f)"/><g transform="translate(44.595 67.933)"><mask id="AI" class="C"><use xlink:href="#g"/></mask><use xlink:href="#g" class="B F"/><g class="D"><use xlink:href="#h" class="E"/><use filter="url(#i)" xlink:href="#h" class="B"/><use xlink:href="#j" class="E"/><use filter="url(#k)" xlink:href="#j" class="B"/><use xlink:href="#l" class="E"/><use filter="url(#m)" xlink:href="#l" class="B"/><use xlink:href="#n" class="E"/><use filter="url(#o)" xlink:href="#n" class="B"/><use xlink:href="#p" class="E"/><use filter="url(#q)" xlink:href="#p" class="B"/></g></g><path d="M159.263 110.55s9.654-1.832 10.812-3.135 7.696 13.75 7.696 13.75l-3.175 3.617h-7.567l-7.766-14.233z" fill="url(#f)"/></g><path d="M70.187 349.055c15.942 0 28.866 2.784 28.866 6.218s-12.924 6.218-28.866 6.218-28.866-2.784-28.866-6.218 12.924-6.218 28.866-6.218z" fill="#bbcff2" opacity=".2"/><path d="M97.03 324.732c1.8 3.173 2.824 6.728 2.824 10.483 0 13.405-12.924 24.272-28.866 24.272s-28.866-10.867-28.866-24.272c0-3.973 1.135-7.723 3.148-11.033 12.788 2.026 38.24 1.895 51.76.55z" fill="url(#r)"/><path d="M71.19 319.368c14.503 0 26.26 2.784 26.26 6.218s-11.757 6.218-26.26 6.218-26.26-2.784-26.26-6.218 11.757-6.218 26.26-6.218z" fill="url(#s)"/><use fill="url(#t)" xlink:href="#u"/><use filter="url(#v)" xlink:href="#u" class="B"/><use fill="url(#w)" xlink:href="#x"/><use filter="url(#y)" xlink:href="#x" class="B"/><use fill="url(#z)" xlink:href="#AA"/><g class="B"><use filter="url(#AB)" xlink:href="#AA"/><path d="M73.03 326.643L90.824 293.6c-8.318 7.92-13.568 17.704-17.795 33.042z" stroke="#489c71" stroke-width="1.203" opacity=".5" style="mix-blend-mode:multiply" class="F"/></g><path d="M548.728 210.414l-2.212-3.705 4.392-7.138h4.434l-6.614 10.843zm2.277 3.717l-2.277-3.717h8.17l2.18 3.717h-8.072zm-6.26-4.24l2.658 4.24h-5.285l2.586-4.24h.04z" fill="#d7e0e9"/></g></svg>